<?xml version="1.0" standalone="no"?>
<!DOCTYPE svg PUBLIC "-//W3C//DTD SVG 20010904//EN"
 "http://www.w3.org/TR/2001/REC-SVG-20010904/DTD/svg10.dtd">
<svg version="1.0" xmlns="http://www.w3.org/2000/svg"
 width="639.000000pt" height="304.000000pt" viewBox="0 0 639.000000 304.000000"
 preserveAspectRatio="xMidYMid meet">

<g transform="translate(0.000000,304.000000) scale(0.100000,-0.100000)"
fill="#00065D" stroke="none">
<path d="M1015 2486 c-202 -32 -374 -118 -526 -263 -276 -264 -375 -660 -255
-1022 120 -362 438 -621 816 -663 315 -35 601 62 815 277 383 382 389 985 13
1381 -219 230 -544 339 -863 290z m143 -56 c22 -38 32 -38 32 0 0 19 5 30 14
30 17 0 26 -31 26 -87 0 -38 -3 -43 -23 -43 -15 0 -29 11 -42 33 l-20 32 -3
-32 c-2 -25 -8 -33 -23 -33 -17 0 -19 7 -19 65 0 59 2 65 20 65 13 0 28 -12
38 -30z m-105 3 c41 -46 24 -105 -35 -119 -21 -4 -33 0 -52 20 -33 32 -33 60
-1 91 28 29 65 32 88 8z m375 -23 c4 -10 -4 -12 -32 -7 -44 7 -49 -9 -5 -18
39 -9 32 -31 -9 -27 -41 4 -42 -16 -2 -24 17 -4 30 -13 30 -20 0 -17 -8 -17
-66 -3 -34 9 -43 15 -40 28 3 9 8 30 11 46 15 67 11 64 62 51 26 -7 49 -18 51
-26z m-508 -50 c19 -56 18 -70 -4 -70 -23 0 -63 116 -43 124 22 8 28 1 47 -54z
m600 30 c35 -18 40 -25 40 -55 0 -22 -8 -41 -22 -55 -26 -24 -27 -24 -77 -4
l-39 16 15 36 c8 20 19 47 24 60 10 27 10 27 59 2z m-694 -32 c-14 -8 -14 -13
5 -50 17 -33 18 -42 7 -49 -21 -14 -24 -11 -43 31 -14 30 -23 40 -38 38 -43
-6 -27 23 25 47 47 22 53 23 57 8 1 -9 -4 -20 -13 -25z m814 -32 c0 -6 -9 -26
-20 -44 -36 -59 1 -74 38 -16 23 35 44 41 50 13 1 -8 -13 -33 -31 -54 l-35
-40 -35 17 c-19 9 -38 26 -42 38 -9 28 39 112 60 104 8 -4 15 -11 15 -18z
m-929 -21 c0 -5 -12 -11 -26 -13 -14 -2 -25 -8 -25 -13 0 -5 17 -7 39 -3 33 5
41 3 50 -15 21 -39 -31 -91 -74 -74 -23 8 -12 28 18 31 44 5 31 23 -14 20 -57
-4 -73 20 -39 57 24 25 71 32 71 10z m645 -45 c153 -39 317 -141 404 -251 206
-261 237 -605 78 -875 l-22 -38 -6 29 c-14 66 -60 101 -127 97 l-33 -3 0 96 0
95 -30 0 c-28 0 -30 -3 -30 -37 0 -21 -3 -62 -6 -90 l-7 -53 -48 0 c-30 0 -53
-6 -63 -16 -9 -8 -16 -11 -16 -6 0 5 -26 10 -57 11 -73 3 -83 11 -15 11 51 0
52 1 52 30 0 32 -4 34 -67 30 -29 -1 -33 2 -33 24 0 23 4 25 53 28 51 3 52 4
55 36 l3 32 -90 0 -91 0 0 -90 0 -90 -44 0 c-27 0 -51 -6 -60 -16 -9 -9 -16
-11 -16 -4 0 6 -4 9 -9 6 -10 -7 -21 17 -21 45 0 16 -7 19 -45 19 -42 0 -44
-1 -50 -34 -6 -27 -11 -33 -26 -29 -15 4 -19 14 -19 51 0 67 45 108 70 63 8
-15 16 -18 37 -12 22 6 27 13 25 32 -5 41 -34 61 -88 61 -43 0 -52 -4 -76 -32
-29 -35 -30 -34 -43 41 l-7 36 52 7 c71 10 88 20 144 87 27 32 52 56 56 54 5
-3 6 -31 3 -64 -3 -32 -2 -61 3 -64 5 -3 27 -1 49 4 22 4 69 14 105 22 67 14
106 32 114 54 3 7 1 15 -4 18 -13 8 -13 45 0 45 6 0 10 -7 10 -16 0 -8 5 -12
10 -9 14 8 13 72 -1 81 -7 4 -20 -4 -31 -17 -13 -16 -21 -20 -25 -12 -2 7 -24
21 -47 32 -29 12 -49 30 -60 51 -25 51 -21 60 23 60 22 0 43 5 46 10 3 6 17
10 30 10 20 0 35 16 34 36 0 3 9 14 21 24 13 11 19 24 14 31 -4 7 -3 9 3 6 9
-6 24 14 27 35 2 14 16 21 16 7 0 -12 2 -12 9 1 16 24 1 31 -24 13 -12 -10
-21 -21 -19 -25 2 -4 -5 -9 -15 -13 -13 -4 -18 -11 -14 -22 4 -10 2 -14 -4
-10 -5 3 -20 -5 -31 -18 -17 -20 -32 -25 -66 -25 -41 0 -145 16 -153 24 -2 2
1 16 7 31 8 20 7 31 -1 41 -7 8 -14 12 -17 9 -3 -2 1 -12 9 -21 12 -15 12 -17
-1 -12 -8 2 -16 16 -18 31 -4 30 -27 54 -37 37 -4 -6 -1 -9 6 -8 7 2 15 -6 17
-16 3 -15 0 -17 -14 -12 -17 5 -17 5 -3 -6 9 -7 14 -19 11 -27 -3 -8 0 -11 7
-7 6 4 9 2 5 -7 -7 -20 -32 -17 -27 3 6 21 -24 47 -38 33 -15 -15 10 -63 33
-63 10 0 18 -7 18 -18 0 -20 -76 -58 -138 -68 -36 -6 -48 -3 -82 21 -42 29
-59 60 -41 78 16 16 13 30 -5 23 -8 -3 -13 -2 -10 3 3 5 -1 14 -9 21 -11 9
-20 6 -42 -16 -15 -16 -36 -29 -46 -29 -30 -3 -39 -27 -16 -48 10 -10 19 -21
19 -26 0 -13 29 -9 34 6 9 24 38 14 108 -37 38 -27 77 -50 87 -50 11 0 21 -5
23 -11 3 -8 14 -7 36 5 l31 16 20 -39 20 -39 -75 -51 -76 -51 -83 0 c-84 0
-107 9 -86 34 14 16 8 79 -8 84 -6 2 -18 16 -26 32 l-15 28 -52 -26 c-41 -21
-54 -33 -56 -52 -3 -26 26 -70 46 -70 22 0 23 -22 2 -42 -22 -21 -23 -26 -16
-142 3 -67 9 -135 12 -152 5 -28 3 -32 -25 -42 l-31 -11 -2 67 c-1 37 -2 81
-2 97 -1 26 -5 30 -33 33 l-31 3 -6 -138 c-3 -76 -7 -150 -8 -165 l-3 -28 -17
23 c-36 46 -78 147 -99 233 -17 73 -20 109 -16 204 5 130 23 203 72 305 98
204 284 356 506 414 104 28 269 28 375 1z m-762 -19 c3 -4 -3 -16 -14 -26 -28
-26 -25 -39 5 -19 31 20 45 11 22 -14 -18 -20 -22 -42 -9 -42 5 0 17 9 27 20
13 15 22 17 29 10 8 -8 0 -22 -28 -47 l-39 -36 -38 44 c-21 24 -39 47 -39 52
0 9 62 66 72 67 4 0 9 -4 12 -9z m1203 -23 c13 -12 23 -30 23 -40 0 -24 -31
-23 -37 2 -6 24 -35 26 -53 5 -17 -21 -4 -49 19 -42 16 4 31 -9 31 -28 0 -12
-37 -13 -56 0 -38 25 -47 50 -30 84 24 46 66 54 103 19z m-1297 -88 c0 -5 -11
-17 -25 -26 -31 -20 -32 -38 -3 -58 16 -11 25 -13 35 -4 17 14 17 29 -1 22
-23 -9 -27 12 -7 37 19 23 19 24 40 5 27 -25 26 -38 -5 -75 -29 -34 -58 -39
-92 -15 -29 20 -29 70 0 101 22 23 58 31 58 13z m1403 -22 c15 -22 -52 -132
-71 -116 -7 6 -11 17 -8 24 6 16 -15 42 -38 46 -39 6 -25 26 31 46 65 22 72
22 86 0z m76 -108 c27 -44 29 -51 15 -57 -10 -4 -20 0 -25 10 -9 14 -13 14
-44 -5 -33 -19 -65 -19 -65 -1 0 5 18 19 39 33 31 19 38 27 31 41 -9 16 -4 29
11 29 4 0 21 -23 38 -50z m-1628 -73 c-13 -33 1 -35 22 -4 19 28 31 18 18 -16
-15 -39 5 -44 24 -6 12 23 20 28 28 20 8 -8 5 -23 -11 -56 l-22 -45 -55 27
c-30 15 -55 31 -55 35 0 5 9 27 21 50 23 45 47 41 30 -5z m483 -19 c5 -23 3
-26 -11 -21 -10 4 -14 2 -10 -4 3 -5 1 -10 -6 -10 -7 0 -13 8 -13 18 0 9 6 15
13 12 8 -3 13 3 13 18 0 28 5 23 14 -13z m266 11 c0 -14 -17 -10 -23 5 -4 10
-1 13 9 9 7 -3 14 -9 14 -14z m928 -20 c3 -16 -94 -63 -109 -53 -21 12 -6 32
39 51 52 23 66 23 70 2z m-1261 -25 c-3 -3 -12 -4 -19 -1 -8 3 -5 6 6 6 11 1
17 -2 13 -5z m1293 -45 c0 -3 -17 -18 -37 -32 l-38 -27 47 0 c33 0 48 -4 52
-16 4 -9 5 -18 3 -20 -2 -2 -33 -1 -69 3 -90 8 -96 28 -25 83 36 27 54 35 59
27 4 -7 8 -15 8 -18z m-1682 -26 c14 -19 8 -80 -9 -97 -5 -6 -30 -3 -64 8 -52
16 -55 19 -49 44 4 15 13 38 21 51 13 20 20 22 51 17 21 -3 43 -14 50 -23z
m1715 -123 c4 0 7 -11 7 -24 0 -18 -12 -30 -54 -52 -57 -30 -79 -27 -58 6 16
27 15 49 -3 56 -8 4 -15 14 -15 24 0 17 4 17 58 4 31 -7 60 -13 65 -14z
m-1756 -72 c7 -6 13 -30 13 -55 l0 -44 -62 3 -63 3 3 40 c5 66 61 93 109 53z
m1773 -129 c0 -16 -7 -19 -50 -19 -47 0 -50 -2 -50 -25 0 -16 -6 -25 -15 -25
-16 0 -19 19 -9 66 5 29 6 29 65 26 50 -3 59 -7 59 -23z m-1760 -9 c0 -11 -4
-20 -10 -20 -15 0 -12 -27 5 -44 8 -8 15 -21 15 -29 0 -12 -9 -12 -65 1 -55
13 -65 19 -65 37 0 16 14 29 53 48 63 32 67 32 67 7z m1704 -90 c38 -14 49
-43 32 -85 -14 -32 -19 -35 -55 -35 -32 0 -44 5 -56 24 -20 29 -11 71 18 91
25 18 28 18 61 5z m-1268 -76 c0 -32 -1 -50 -4 -40 -3 15 -6 16 -14 5 -6 -10
-7 -7 -3 10 5 16 4 21 -4 17 -12 -8 -16 56 -4 68 17 17 28 -5 29 -60z m-422
24 c8 -13 18 -35 21 -50 6 -25 4 -27 -48 -42 -30 -9 -58 -16 -61 -16 -10 0
-26 78 -20 95 15 37 87 46 108 13z m1666 -108 c11 -11 20 -27 20 -35 0 -28
-24 -65 -42 -65 -22 0 -24 25 -3 34 23 9 18 32 -11 45 -33 15 -46 6 -42 -27 2
-19 -2 -27 -12 -27 -22 0 -25 53 -4 76 22 25 69 24 94 -1z m-1620 -15 c0 -14
-79 -55 -106 -55 -30 0 -12 32 29 50 51 23 77 25 77 5z m243 -18 c4 3 7 1 7
-5 0 -17 -16 -15 -31 6 -12 15 -12 16 2 5 9 -7 19 -10 22 -6z m341 -3 c3 -8 2
-12 -4 -9 -6 3 -10 10 -10 16 0 14 7 11 14 -7z m376 -10 c0 -2 -7 -4 -15 -4
-8 0 -15 4 -15 10 0 5 7 7 15 4 8 -4 15 -8 15 -10z m317 10 c-3 -3 -12 -4 -19
-1 -8 3 -5 6 6 6 11 1 17 -2 13 -5z m-1251 -38 c3 -8 -2 -29 -11 -47 -16 -31
-16 -32 1 -24 66 26 67 -7 2 -44 -46 -27 -54 -28 -62 -14 -5 10 -3 28 8 51 16
33 16 34 -1 27 -59 -24 -65 5 -8 40 46 28 63 31 71 11z m1508 -56 c28 -36 36
-55 31 -71 -5 -16 -12 -19 -28 -15 -12 4 -41 9 -64 12 -46 7 -59 32 -23 41 11
3 23 17 26 32 8 36 13 51 17 51 1 0 20 -22 41 -50z m-1410 -92 c26 -37 19 -64
-24 -98 -36 -28 -41 -30 -47 -14 -5 12 3 25 27 45 21 18 31 33 27 43 -9 22
-25 20 -59 -9 -25 -21 -33 -23 -45 -13 -13 10 -10 16 19 40 41 34 81 36 102 6z
m1156 -50 c-191 -178 -467 -248 -715 -183 -111 29 -239 101 -322 179 l-75 71
588 -3 589 -3 -65 -61z m202 13 c21 -19 25 -28 17 -38 -9 -10 -18 -7 -48 17
l-38 29 -20 -21 c-37 -36 -46 -10 -12 33 35 44 28 46 101 -20z m-1297 -142
c12 -19 -5 -23 -22 -6 -16 16 -16 17 -1 17 9 0 20 -5 23 -11z m1165 -8 c0 -12
-28 -22 -34 -12 -3 5 -3 11 1 15 9 9 33 7 33 -3z m-1055 -32 c6 -27 8 -28 19
-13 7 9 18 14 24 10 15 -9 -29 -81 -49 -81 -8 0 -15 12 -17 28 -3 27 -5 28
-22 12 -28 -26 -35 0 -10 40 27 43 46 45 55 4z m945 21 c0 -5 -8 -13 -17 -19
-10 -5 -15 -13 -11 -17 4 -4 14 -1 22 5 9 8 16 8 20 2 4 -6 -3 -15 -14 -21
-11 -6 -18 -15 -15 -21 4 -6 13 -5 25 1 23 13 30 13 30 0 0 -9 -59 -45 -64
-38 -30 41 -46 68 -46 75 0 8 48 40 63 42 4 1 7 -3 7 -9z m-853 -51 c15 -15 5
-39 -17 -39 -22 0 -32 24 -17 39 6 6 14 11 17 11 3 0 11 -5 17 -11z m776 4 c4
-3 -1 -11 -9 -18 -15 -10 -15 -14 0 -42 13 -26 13 -32 1 -36 -9 -4 -19 5 -27
24 -7 16 -21 29 -30 29 -27 0 -22 17 10 34 30 17 45 19 55 9z m-93 -42 c0 -5
-11 -12 -25 -15 -34 -9 -23 -25 11 -18 19 3 25 1 20 -7 -4 -6 -14 -11 -22 -11
-8 0 -14 -7 -14 -15 0 -11 5 -12 25 -5 16 6 25 6 25 0 0 -11 -42 -30 -64 -30
-11 0 -43 78 -34 84 32 21 78 31 78 17z m-561 -19 c13 -24 -12 -82 -37 -82
-37 0 -53 40 -32 81 13 24 56 25 69 1z m431 8 c0 -5 -10 -10 -22 -9 -22 0 -22
1 -3 9 11 5 21 9 23 9 1 1 2 -3 2 -9z m-353 -18 c7 -4 11 -25 10 -47 -2 -39
-3 -40 -37 -40 -29 0 -36 4 -38 23 -2 12 2 22 8 22 6 0 8 5 5 10 -18 29 21 52
52 32z m388 -19 c4 -16 8 -36 10 -45 5 -26 -13 -33 -34 -14 -23 21 -31 20 -31
-5 0 -34 -24 -16 -32 26 -11 52 4 66 37 35 l25 -23 0 26 c0 35 18 35 25 0z
m-241 1 c9 -3 16 -12 16 -20 0 -17 -12 -18 -26 -4 -15 15 -38 -14 -30 -36 4
-12 13 -14 32 -10 19 5 25 3 22 -6 -7 -21 -60 -22 -75 -2 -18 25 -16 41 7 64
21 21 29 23 54 14z m121 -40 c18 -49 15 -65 -10 -44 -13 11 -20 11 -40 0 -14
-7 -26 -11 -28 -9 -2 2 3 25 10 52 19 63 44 64 68 1z"/>
<path d="M986 2402 c-10 -17 7 -52 25 -52 23 0 32 15 24 40 -6 20 -39 28 -49
12z"/>
<path d="M1481 2329 c-10 -28 -9 -30 12 -27 16 2 23 11 25 31 5 38 -23 36 -37
-4z"/>
<path d="M1170 1988 c0 -9 7 -19 16 -22 15 -6 15 -4 3 11 -7 10 -15 20 -16 22
-2 2 -3 -3 -3 -11z"/>
<path d="M1507 1969 c4 -13 8 -18 11 -10 2 7 -1 18 -6 23 -8 8 -9 4 -5 -13z"/>
<path d="M1060 1970 c-8 -5 -10 -10 -5 -10 6 0 17 5 25 10 8 5 11 10 5 10 -5
0 -17 -5 -25 -10z"/>
<path d="M1850 2080 c-8 -5 -12 -12 -9 -15 4 -3 12 1 19 10 14 17 11 19 -10 5z"/>
<path d="M295 1780 c-9 -15 2 -27 30 -32 30 -6 42 7 25 27 -14 17 -46 20 -55
5z"/>
<path d="M2020 1650 c0 -5 6 -10 14 -10 8 0 18 5 21 10 3 6 -3 10 -14 10 -12
0 -21 -4 -21 -10z"/>
<path d="M262 1578 c-20 -20 -14 -28 23 -28 37 0 49 22 19 34 -22 8 -28 8 -42
-6z"/>
<path d="M284 1425 c-19 -14 -18 -14 4 -15 13 0 22 6 22 15 0 19 -1 19 -26 0z"/>
<path d="M1996 1333 c-5 -11 -1 -22 10 -30 23 -17 39 -16 54 2 10 12 10 18 0
30 -17 20 -56 19 -64 -2z"/>
<path d="M292 1298 c-17 -17 -15 -28 7 -28 30 0 51 11 51 26 0 17 -41 19 -58
2z"/>
<path d="M1905 1060 c-3 -5 1 -13 10 -16 22 -9 29 1 11 15 -10 8 -16 9 -21 1z"/>
<path d="M770 730 c0 -5 5 -10 10 -10 6 0 10 5 10 10 0 6 -4 10 -10 10 -5 0
-10 -4 -10 -10z"/>
<path d="M871 668 c-5 -13 -6 -27 -3 -32 6 -11 32 22 32 41 0 21 -20 15 -29
-9z"/>
<path d="M970 660 c0 -5 5 -10 10 -10 6 0 10 5 10 10 0 6 -4 10 -10 10 -5 0
-10 -4 -10 -10z"/>
<path d="M960 615 c0 -8 5 -15 10 -15 6 0 10 7 10 15 0 8 -4 15 -10 15 -5 0
-10 -7 -10 -15z"/>
<path d="M1225 620 c-3 -5 -1 -10 4 -10 6 0 11 5 11 10 0 6 -2 10 -4 10 -3 0
-8 -4 -11 -10z"/>
<path d="M3160 2090 c-69 -23 -120 -78 -144 -154 -15 -47 -17 -96 -14 -402 3
-337 4 -351 26 -406 58 -144 232 -183 346 -78 l41 38 19 -44 c17 -41 20 -44
56 -44 l38 0 7 293 c4 160 6 303 4 317 l-4 25 -132 3 -133 3 0 -96 0 -95 30 0
30 0 0 -102 c0 -126 -11 -153 -60 -153 -58 0 -60 11 -60 360 0 348 2 359 63
353 41 -4 57 -35 57 -115 l0 -63 105 0 105 0 0 33 c-1 70 -22 175 -45 223 -53
108 -195 153 -335 104z"/>
<path d="M5137 2100 c-58 -15 -92 -36 -130 -80 -61 -72 -67 -114 -67 -476 0
-359 4 -390 65 -461 55 -65 113 -88 220 -88 79 0 97 4 148 29 44 21 66 40 88
75 52 81 54 100 54 451 0 353 -3 379 -60 462 -49 73 -206 116 -318 88z m133
-209 c6 -13 10 -139 10 -342 0 -286 -2 -324 -17 -341 -23 -25 -59 -23 -78 6
-23 35 -18 672 5 686 26 17 69 11 80 -9z"/>
<path d="M5750 2101 c-79 -25 -142 -84 -159 -148 -6 -21 -11 -81 -11 -133 0
-105 21 -169 60 -190 21 -11 21 -12 -13 -49 -40 -44 -57 -107 -57 -204 1 -164
41 -286 111 -337 79 -56 224 -63 325 -14 97 46 134 138 134 328 0 143 -11 189
-54 232 -32 32 -32 33 -11 44 48 25 60 66 60 195 0 104 -3 125 -22 160 -47 89
-105 118 -238 122 -55 1 -111 -1 -125 -6z m139 -198 c37 -31 40 -142 5 -178
-26 -26 -62 -19 -80 17 -24 46 -15 135 16 160 28 22 32 22 59 1z m12 -409 c19
-24 24 -220 7 -254 -19 -35 -70 -40 -92 -8 -22 31 -23 206 -1 248 18 34 63 41
86 14z"/>
<path d="M2390 1667 c0 -358 3 -443 15 -492 31 -119 113 -179 245 -180 154 0
228 59 259 203 7 34 11 202 11 477 l0 425 -105 0 -105 0 0 -427 c0 -467 -1
-475 -55 -481 -55 -7 -55 -8 -55 470 l0 438 -105 0 -105 0 0 -433z"/>
<path d="M3630 1550 l0 -550 225 0 225 0 0 105 0 105 -115 0 -115 0 0 130 0
130 105 0 105 0 0 105 0 105 -105 0 -105 0 0 105 0 105 104 0 c85 0 105 3 110
16 3 9 6 56 6 105 l0 89 -220 0 -220 0 0 -550z"/>
<path d="M4150 1550 l0 -550 223 2 222 3 3 93 3 92 -116 0 -115 0 0 455 0 455
-110 0 -110 0 0 -550z"/>
</g>
</svg>
